<?xml version="1.0" encoding="UTF-8" standalone="no"?>
<svg width="320" xmlns="http://www.w3.org/2000/svg" xmlns:xlink="http://www.w3.org/1999/xlink" height="320">
 <defs>
  <linearGradient id="linearGradient1795" y2="-.26531" xlink:href="#linearGradient1778" x2=".33333" y1="2.5078" x1="1.3018"/>
  <linearGradient id="linearGradient1787" y2="-.16667" x2=".58431" y1="2.4048" x1="1.0314">
   <stop id="stop1846" stop-color="#565248" offset="0"/>
   <stop id="stop1847" stop-color="#eae8e3" offset="1"/>
  </linearGradient>
  <linearGradient id="linearGradient1778">
   <stop id="stop1779" stop-color="#7f7f7f" offset="0"/>
   <stop id="stop1780" stop-color="#fffdf8" offset="1"/>
  </linearGradient>
  <linearGradient id="linearGradient1806">
   <stop id="stop1807" stop-opacity=".531" offset="0"/>
   <stop id="stop3276" stop-opacity=".073" offset=".64778"/>
   <stop id="stop1808" stop-opacity="0" offset="1"/>
  </linearGradient>
  <linearGradient id="linearGradient1794" y2="1.5128" xlink:href="#linearGradient1778" x2=".48235" y1="-.32051" x1=".50196"/>
  <linearGradient id="linearGradient1793" y2="1.3742" xlink:href="#linearGradient1778" x2="1.0498" y1="-1.1713" x1="-.12941"/>
  <linearGradient id="linearGradient1788" y2=".076923" x2=".51373" y1="1.375" x1=".50588">
   <stop id="stop1850" stop-color="#fff" stop-opacity=".576" offset="0"/>
   <stop id="stop4104" stop-color="#fff" stop-opacity="0" offset="1"/>
  </linearGradient>
  <linearGradient id="linearGradient1781" y2=".14615" x2="1.1404" y1="-1.3462" x1="-.69787">
   <stop id="stop866" stop-color="#fff" offset="0"/>
   <stop id="stop868" stop-color="#fff" stop-opacity="0" offset="1"/>
  </linearGradient>
  <linearGradient id="linearGradient2711" y2="-1.641" xlink:href="#linearGradient1806" x2=".68235" y1=".30769" x1=".66274"/>
  <radialGradient id="radialGradient1505" fx=".50978" fy=".15801" xlink:href="#linearGradient1806" cy=".50649" cx=".49032" r=".46014"/>
  <radialGradient id="svg_1" fx=".51373" fy=".31579">
   <stop id="stop1852" stop-opacity=".372" offset="0"/>
   <stop id="stop1854" stop-opacity=".11" offset=".5"/>
   <stop id="stop1853" stop-color="#adadad" stop-opacity="0" offset="1"/>
  </radialGradient>
 </defs>
 <g id="g1667" externalResourcesRequired="false" fill-rule="evenodd" transform="matrix(1.22 0 0 1.22 -27.773 -20.135)">
  <path id="path5460" d="m26.893 255.18a125.61 14.184 0 1 0 251.22 0 125.61 14.184 0 1 0 -251.22 0z" stroke-width="1.25" fill="url(#svg_1)"/>
  <g id="g4074" externalResourcesRequired="false" transform="matrix(1.5675 0 0 1.5675 28.983 29.868)">
   <g stroke-width="1.25">
    <path id="path1856" fill="url(#radialGradient1505)" d="m155.22 126.43a33.645 23.626 0 1 0 -67.289 0 33.645 23.626 0 1 0 67.289 0z"/>
    <path id="path3239" fill="#fff" d="m131.67 17.488l-107.04 1.3376 0.6369 75.956 9.4905-0.3822 0.0318 0.4777-10 0.0956 0.2866 4.9681-22.102 28.089-1.1465 3.9809v6.656c0 1.803 2.2635 3.1021 3.8217 3.0892l149.81-1.242c1.6643-0.013763 3.4477-2.4829 3.2484-4.3949l-0.5414-5.1911-3.2484-4.3949-21.815-27.102-0.1274-5.4777h-1.3694l0.0637-76.465zm-65.191 76.401v0.70064l-5.7962 0.0319 0.0318-0.2866 5.7643-0.4459v-0.000008zm55.828 0l2.8662 0.1274-2.8662 0.0319v-0.15924z"/>
    <path id="path1809" fill="url(#radialGradient1505)" d="m87.442 126.43a43.845 23.626 0 1 0 -87.69 0 43.845 23.626 0 1 0 87.69 0z"/>
    <path id="path1791" d="m24.899 94.927l0.3032 4.9657-22.118 28.094-1.1489 3.988v6.6467c0 1.803 2.2714 3.1147 3.8295 3.1018l149.82-1.2395c1.6643-0.013779 3.4487-2.4746 3.2495-4.3866l-0.5416-5.1968-3.2495-4.3866-21.831-27.103-0.1045-5.4828-108.21 0.9991v0.000015z" stroke-opacity=".214" stroke="#000" fill="url(#linearGradient1794)"/>
   </g>
   <path id="path1776" d="m25.38 94.754l-0.6267-75.956 107.03-1.3293-0.0538 76.842-9.3053-0.4431v5.3173l-55.832-0.4431v-4.8742l-5.7604 0.4431-0.4431 4.8742h-25.257l-0.2596-4.8205-9.4889 0.3894v-0.000015z" stroke-opacity=".377" stroke="#000" stroke-width=".308" fill="url(#linearGradient1795)"/>
   <path id="path1777" d="m34.418 27.758l0.5526 60.4 86.35-0.3907-0.3907-60.562-86.512 0.5526z" stroke="url(#linearGradient1793)" stroke-width=".68" fill="#a5db5e"/>
   <g stroke-width="1.25">
    <path id="path1782" fill="url(#linearGradient1787)" d="m29.522 100.88l-14.2 19.999c-2.8506 4.0148 0.55165 5.0212 2.1663 5.0132l127.81-0.6267c1.1418-0.0056 4.1532 0.34034 1.0832-3.7599l-15.152-20.236-101.71-0.3894z"/>
    <path id="path2125" fill="url(#linearGradient2711)" d="m57.402 125.56l4.2641-13.486h36.387l4.5483 13.157-45.199 0.3289z"/>
    <path id="path1784" fill="#56544e" d="m29.169 100.6l-7.0163 9.5765 116.82 0.2887-8.2085-10.335-101.59 0.47z"/>
   </g>
   <path id="path1792" stroke-linejoin="round" d="m3.4681 130.33l152.8-0.4431" stroke-opacity=".264" stroke="#fff" stroke-linecap="round" stroke-width="2.504" fill="none"/>
   <g stroke-width="1.25">
    <path id="path1848" fill="url(#linearGradient1781)" d="m38.411 75.642s5.7556-19.715 36.921-12.644c30.093 6.8278 33.886-20.736 41.979-21.242v43.496l-79.405 0.5058 0.5058-10.115z"/>
    <path id="path1854" fill="url(#linearGradient1788)" d="m59.435 93.863l-23.316 1.1158 0.1829 3.5398 23.133-0.2116v-4.444zm61.42 0.2309l-54.058 0.4425 0.1995 3.9823 54.44 0.2309-0.5819-4.6556z"/>
   </g>
  </g>
 </g>
</svg>
