<?xml version="1.0" encoding="UTF-8" standalone="no"?>
<svg viewBox="0 0 744.09448819 1052.3622047" xmlns="http://www.w3.org/2000/svg">
<defs>
<linearGradient gradientUnits="userSpaceOnUse" id="linearGradient8286" x2="0" y1="560.09625" y2="591.94204">
<stop offset="0" stop-color="#ccbcbc"/>
<stop offset="1" stop-color="#665f5f"/>
</linearGradient>
</defs>
<path d="m96.92163,399.42313c-19.01167,18.78908-66.40285,132.63921-75.88886,148.83341-3.93473,32.3197.64759,50.71822 13.04024,62.97453 169.48718-.15612 567.17132-.80408 678.92934-4.07494 21.25949-22.60081 15.16083-59.47334 8.24152-71.53399-18.50428-28.03043-60.15241-116.9518-82.98956-135.28538-90.37988-2.04516-381.27109-2.28146-541.33268-.91363z" fill="url(#linearGradient8286)" stroke="#000" stroke-width=".3929"/>
<path d="m35.98434,536.88567c4.20329,3.92271 175.29105.874 290.92127.4122 86.34947-.42381 384.68921-.27204 387.23775-1.73526 .1935-5.0914-49.5733-94.21844-54.63255-99.77152-4.42028-2.96842-187.00439-2.54165-336.62936-2.6766-186.39616,5.07524-237.9078,1.20342-241.23894,2.92433-2.81644,1.71731-48.36906,95.98673-45.65817,100.84685z" fill="none" stroke="#5c5555" stroke-width=".3929"/>
<path d="m611.02779,507.01697c10.97317.26484 34.69534.63193 45.65894-.0988-5.09049-14.47725.47732-21.16882-10.39778-27.64361-3.49571-4.76545.41186-9.95422-7.88998-16.04612-2.05654-5.06711 1.33153-6.69491-8.07907-17.59853-3.10851-8.23327 3.09895-6.24146-7.09929-18.3746-11.55977-.17793-19.96151-1.33704-29.44457.0794-2.75345,4.48435-8.61371,11.94974-9.08506,17.13108 8.62309,20.85679 16.60476,43.46741 26.33681,62.55118z" fill="#4d4d4d" stroke="#000" stroke-width=".3929"/>
<path d="m435.93541,507.94693c21.25493-2.66158 116.962.23408 131.38667-.13502-1.74046-28.81485-12.26612-30.87829-8.78799-34.54426 3.43643-.25893 2.8107-.0102 4.96362-1.16906-3.60683-8.1529-3.40647-19.15335-10.45442-28.12827-3.09608-13.32202.38917-17.83418-13.20408-16.33779-12.87157-2.35929-9.35185,5.34035-14.48364,16.726-2.74881-13.23273 1.28836-18.21654-12.67559-16.82311-13.26995-1.32821-8.97102,4.5907-15.89581,16.19237-4.60467-10.33432 1.43692-17.10837-12.4221-15.98694-16.53317-2.16988-9.15132,7.46418-17.04095,14.18332-3.98782-10.43857.90921-15.12194-11.3487-14.60449-13.16585-.62599-10.27775,1.16896-16.7436,15.38392-5.34902-17.34905-1.80652-15.58926-13.12982-15.46308-11.97965-.71624-8.64821-.9829-15.626,16.92146-3.87907-18.29672-4.03435-17.65305-15.37421-16.57775-8.54849-.17199-7.6316-3.1723-13.65743,16.75274-5.77379-18.68906-2.79715-17.32393-14.02257-16.92199-15.08603-1.07673-7.75208,2.01285-15.20409,16.55233-4.23051-15.48179-1.26268-16.86649-13.6807-16.50535-14.28767-1.09517-9.81347,3.15931-14.26488,15.9831-7.0812-11.41953-2.06109-17.63173-14.88483-15.77248-14.23561-1.10098-9.63392,3.71963-14.25488,14.86538-5.64951-11.27633-2.00803-16.02182-14.667-14.84061-12.87552-.78177-9.80383,3.60053-14.2823,14.75581-5.91842-11.26679-2.51902-16.17202-14.73911-14.73153-12.1652-1.08341-8.75358,2.91449-14.03364,14.72483-5.69149-10.61172-2.17816-15.80103-14.75708-14.82411-12.17276-1.75831-11.10372,3.82921-14.32439,15.24154-5.07203-11.21543-2.26819-15.78509-15.17205-15.10597-13.33736-.88833-8.51792,5.41444-13.87742,15.70431-5.97663-12.74932-3.47244-16.49611-14.83065-15.4136-12.78719-1.0719-10.39973,4.16088-13.8668,14.26248-4.90703-6.76637-1.7112-15.82404-14.41369-14.38804-14.25824-.97071-10.21481,5.23551-13.41516,14.20102-6.19482-10.43539-2.80008-14.41424-16.99565-13.46465-11.14289-1.13715-7.79588,3.16803-13.42226,18.4648-4.93579,3.99106-4.46174,10.81462-7.15655,16.68287-14.23236-.99194-9.18214,12.02844-13.69673,17.811-12.33207,7.03564-4.43173,10.96429-11.08388,27.92953 22.77409.75071 72.07372-1.0903 84.07237.52444-1.33221,7.38574-2.76792,8.01021-5.63893,18.66889 60.92872,1.95198 236.70373-1.50777 297.585-1.70994-.283-7.24202-.75994-11.19712-.47808-19.0841z" fill="#241c1c" stroke="#000" stroke-width=".3929"/>
<path d="m598.56919,437.12267c6.12861.50846 25.73438-.0681 29.66069-.36361 .42733-2.4435-4.3654-7.85274-5.14645-8.79582-9.36306-.61551-21.46073-1.12793-28.28828-.11051-.74383,2.0833 1.4537,5.84241 3.77404,9.26994z" fill="#666" stroke="#000" stroke-width=".3929"/>
<path d="m605.24922,454.86156c6.12861.50847 25.73437-.0681 29.66069-.36361 .42727-2.44349-4.3654-7.16952-5.14646-8.1126-9.36304-.61551-22.82716-.82018-29.65471.19725-.74383,2.08329 2.82015,4.85143 5.14048,8.27896z" fill="#666" stroke="#000" stroke-width=".3929"/>
<path d="m611.96138,470.71736c6.12861.50847 26.86282.47095 30.78914.17539 .42727-2.44351-4.57059-6.55401-5.35164-7.49709-9.36304-.61551-23.44269-.71759-30.27018.29983-.74389,2.08329 2.51234,3.59435 4.83268,7.02187z" fill="#666" stroke="#000" stroke-width=".3929"/>
<path d="m620.1049,487.34291c6.12861.50846 27.67573.50092 31.60204.20535 .42728-2.44349-4.73514-6.4726-5.51619-7.41568-9.36298-.61551-25.15178-.615-31.97926.40242-.74383,2.0833 3.06016,4.6114 5.89341,6.80791z" fill="#666" stroke="#000" stroke-width=".3929"/>
<path d="m83.1109,488.48309c-6.23163.50525-11.77098.0113-15.76331-.28235-.43446-2.42802 3.88956-5.56427 4.68372-6.50137 9.52039-.61161 9.20457-.992 16.14683.0189 .75634,2.07008-3.94035,5.34394-5.06725,6.76475z" fill="#483737" stroke="#000" stroke-width=".3929"/>
<path d="m129.83013,487.93461c-6.23162.50525-28.8286.0113-32.82092-.28235-.43446-2.42801 3.90727-5.59272 4.70145-6.52982 9.52038-.61161 25.2792-.96354 32.22146.0474 .75635,2.07008-2.97508,5.34394-4.10199,6.76474z" fill="#483737" stroke="#000" stroke-width=".3929"/>
<path d="m91.13424,472.34225c-6.23163.50524-12.04981.0113-16.04213-.28236-.43446-2.428 3.73977-6.18851 4.53394-7.12561 9.52038-.61162 2.67186-.40558 15.36103.0189 .75634,2.07008-2.72593,5.96819-3.85283,7.389z" fill="#483737" stroke="#000" stroke-width=".3929"/>
<path d="m429.1707,506.92171c-6.23164.50525-280.47177.31898-284.4641.0252 .83296-2.17453 3.57267-6.18719 4.36684-7.12429 9.52038-.6116 272.22898-1.61174 279.99369-.42616 1.00983,1.8166 1.23044,6.10439.10357,7.52519z" fill="#483737" stroke="#000" stroke-width=".3929"/>
<path d="m161.78204,486.79222c-6.23163.50525-13.40117.56164-17.3935.26793-.43446-2.42802 3.3192-4.89323 4.11336-5.83033 9.52039-.61161 5.66965-.53777 16.24376-.40726 .75634,2.0701-1.83672,4.54885-2.96362,5.96966z" fill="#483737" stroke="#000" stroke-width=".3929"/>
<path d="m192.81541,487.1082c-6.23163.50525-13.40117.56164-17.3935.26793-.43446-2.42801 4.09568-5.51442 4.88985-6.45152 9.52038-.61161 5.66965-.3032 16.24376-.17268 .75634,2.07007-2.61321,4.93546-3.74011,6.35627z" fill="#483737" stroke="#000" stroke-width=".3929"/>
<path d="m226.35947,486.93053c-6.23162.50524-14.64354.56163-18.63586.26792-.43447-2.428 2.698-5.6697 3.49217-6.6068 4.14156-.0664 12.3474-.81643 17.02024-.37532-.0201,2.07009-.74964,5.29339-1.87655,6.7142z" fill="#483737" stroke="#000" stroke-width=".3929"/>
<path d="m257.90322,486.97812c-6.23162.50525-14.72281.40635-18.71513.11263 .65261-2.42801 1.839-5.83433 2.63317-6.77142 7.19093-.30103 12.7405-.61381 17.41335-.17269-.0201,2.07007-.20448,5.41067-1.33139,6.83148z" fill="#483737" stroke="#000" stroke-width=".3929"/>
<path d="m290.41015,486.95453c-6.23162.50525-13.98879.57282-17.98112.27913-.0133-2.26154 1.18663-5.66785 1.9808-6.60495 7.19093-.30102 12.09879-.78028 16.77165-.33918-.0201,2.07009.35561,5.2442-.77133,6.665z" fill="#483737" stroke="#000" stroke-width=".3929"/>
<path d="m321.81706,487.23199c-6.23163.50525-14.40798.40635-18.4003.11263-.0133-2.26152 1.27283-5.66784 2.067-6.60494 7.19093-.30102 12.3205-.78029 16.99335-.33917-.0201,2.07008.46684,5.41068-.66005,6.83148z" fill="#483737" stroke="#000" stroke-width=".3929"/>
<path d="m355.89949,487.1575c-6.23162.50525-15.68026.40634-19.67258.11263-.0133-2.26153.758-5.66784 1.55217-6.60494 7.19093-.30101 12.15667-.78028 16.82952-.33916 .81226,2.40305 2.4178,5.41066 1.29089,6.83147z" fill="#483737" stroke="#000" stroke-width=".3929"/>
<path d="m387.97711,486.91111c-6.23162.50524-15.51378.40633-19.5061.11262-.0133-2.26152-1.76589-5.66783-.97171-6.60493 5.02664-.80047 14.34758-.78029 19.02043-.33917 .81226,2.40304 2.58428,5.41067 1.45738,6.83148z" fill="#483737" stroke="#000" stroke-width=".3929"/>
<path d="m420.23303,487.02044c-6.23163.50525-14.68138.40635-18.6737.11264-.0133-2.26153-2.93127-5.50136-2.13709-6.43845 5.02665-.80047 13.84813-.44733 18.52097-.006 .81229,2.40305 3.41669,4.91122 2.28982,6.33203z" fill="#483737" stroke="#000" stroke-width=".3929"/>
<path d="m450.76768,486.9277c-6.23164.50524-12.89668.23985-16.88899-.0538-1.01223-1.09614-3.71706-5.33487-2.92289-6.27197 5.02664-.80047 12.68274-.44731 17.35559-.006 1.14522,2.07009 3.58316,4.91122 2.45629,6.33204z" fill="#483737" stroke="#000" stroke-width=".3929"/>
<path d="m498.20623,486.87045c-6.23159.50525-29.27858.40633-33.27092.11263-1.01223-1.09615-2.88463-5.38148-2.09046-6.31858 5.02664-.80047 28.23228-.61381 32.90513-.1727 .97872,1.07118 3.58317,4.95784 2.45625,6.37865z" fill="#483737" stroke="#000" stroke-width=".3929"/>
<path d="m530.27763,487.2846c-6.23163.50525-12.35059.23985-16.34293-.0538-1.01223-1.09614-4.383-5.54797-3.58883-6.48507 5.02665-.80047 12.30317-.44731 16.97601-.006 .97876,1.07119 4.08266,5.12432 2.95575,6.54514z" fill="#483737" stroke="#000" stroke-width=".3929"/>
<path d="m561.04093,487.12435c-6.23164.50524-12.3972.23986-16.38953-.0538-1.01218-1.09615-4.50286-5.54797-3.70871-6.48507 5.02665-.80047 11.92361-.44733 16.59648-.006 .97876,1.07118 4.62871,5.12432 3.50176,6.54512z" fill="#483737" stroke="#000" stroke-width=".3929"/>
<path d="m119.78502,472.17268c-6.23162.50524-12.83561.0113-16.82794-.28236-.43446-2.42801 4.09695-6.3058 4.89113-7.2429 9.52038-.61161 3.57495-.2883 16.14683.0189 .75634,2.07007-3.08311,6.08546-4.21002,7.50627z" fill="#483737" stroke="#000" stroke-width=".3929"/>
<path d="m151.21705,471.50416c-6.23162.50525-12.83561.0113-16.82793-.28236-.43447-2.428 3.42843-6.18851 4.2226-7.12561 9.52038-.61162 4.24346-.2883 16.81534.0189 .75635,2.07008-3.0831,5.96819-4.21001,7.389z" fill="#483737" stroke="#000" stroke-width=".3929"/>
<path d="m183.31515,471.96364c-6.23163.50525-12.83562.0113-16.82795-.28235-.43446-2.42802 3.07125-6.3058 3.86543-7.2429 9.52038-.61161 4.12618-.2883 16.69806.0189 .75634,2.07008-2.60864,6.08547-3.73554,7.50628z" fill="#483737" stroke="#000" stroke-width=".3929"/>
<path d="m213.36962,471.96364c-6.23162.50525-12.60105-.10592-16.59337-.39964-.43446-2.42801 3.19387-6.73975 3.98804-7.67685 8.93396-.37705 9.32185-.17101 15.79498.13627 .75634,2.07007-2.06274,6.51942-3.18965,7.94022z" fill="#483737" stroke="#000" stroke-width=".3929"/>
<path d="m245.97982,471.84635c-6.23163.50525-13.89117.0114-17.88349-.28235-.43446-2.42801 1.89841-6.85703 2.69258-7.79414 5.70991-.14017 11.47808-.23243 16.3814.25356 .75634,2.07007-.0636,6.40214-1.19049,7.82293z" fill="#483737" stroke="#000" stroke-width=".3929"/>
<path d="m277.05467,471.52969c-6.23163.50524-13.89117.0113-17.8835-.28236-.43445-2.428.684-7.0916 1.47817-8.0287 5.70991-.14017 11.74905-.23243 16.65238.25355 .75633,2.07008.74437,6.63671-.38253,8.05751z" fill="#483737" stroke="#000" stroke-width=".3929"/>
<path d="m308.4867,471.52969c-6.23163.50524-13.89117.0113-17.8835-.28236-.43445-2.428.684-7.20888 1.47817-8.14598 5.70991-.14017 11.47809-.23243 16.38141.25354 .75633,2.07009 1.15082,6.754.0239,8.1748z" fill="#483737" stroke="#000" stroke-width=".3929"/>
<path d="m339.91873,471.64697c-6.23162.50525-13.89117.0113-17.88349-.28235-.43447-2.42801-.10181-7.20888.69237-8.14598 5.7099-.14018 11.47808-.23243 16.38139.25354 .75634,2.07008 1.93663,6.75399.80973,8.17479z" fill="#483737" stroke="#000" stroke-width=".3929"/>
<path d="m371.11618,471.86007c-6.23161.50526-13.77388.0113-17.7662-.28235-.43446-2.42801-.10181-7.0916.69237-8.0287 5.7099-.14017 10.80956-.23242 15.71288.25355 .75635,2.07008 2.48787,6.63671 1.36095,8.0575z" fill="#483737" stroke="#000" stroke-width=".3929"/>
<path d="m401.29329,471.86007c-6.23163.50526-13.42204.12865-17.41436-.16506-.43446-2.42802-1.55613-7.20889-.76196-8.14599 5.70992-.14017 11.91203-.23242 16.81536.25355 .75635,2.07008 2.48786,6.63671 1.36096,8.0575z" fill="#483737" stroke="#000" stroke-width=".3929"/>
<path d="m433.07718,471.62552c-6.23163.50524-13.77391.12863-17.76621-.16508-.43447-2.428-1.79068-7.20889-.99652-8.14598 5.70992-.14017 12.02932-.23243 16.93264.25354 .75634,2.07009 2.95697,6.63671 1.83009,8.05752z" fill="#483737" stroke="#000" stroke-width=".3929"/>
<path d="m463.95797,471.62552c-6.23164.50524-13.30474.3632-17.29708.0695-.43447-2.42802-2.49437-7.44346-1.70021-8.38055 5.70991-.14017 11.79476-.23243 16.69808.25355 .75634,2.07008 3.42613,6.6367 2.29921,8.05751z" fill="#483737" stroke="#000" stroke-width=".3929"/>
<path d="m493.8184,471.62552c-6.23164.50524-12.83562.3632-16.82793.0695-.90363-2.31073-2.96352-7.44346-2.16935-8.38055 5.7099-.14017 11.79474-.23243 16.69807.25355 1.10817,2.07008 3.42613,6.6367 2.29921,8.05751z" fill="#483737" stroke="#000" stroke-width=".3929"/>
<path d="m555.77936,471.62552c-6.23164.50524-41.79295.3632-45.78525.0695-1.84188-1.84159-4.53513-7.32617-3.74096-8.26326 5.7099-.14018 40.75207-.23243 45.65537.25354 1.69462,1.9528 4.99772,6.51942 3.87084,7.94023z" fill="#483737" stroke="#000" stroke-width=".3929"/>
<path d="m86.55881,414.00962 563.86476-.19167" fill="none" stroke="#737373" stroke-width=".7858"/>
<path d="m87.71355,412.24637 561.56487-.19167" fill="none" stroke="#737373" stroke-width=".7858"/>
<path d="m88.94271,410.27228 558.27746-.19167" fill="none" stroke="#737373" stroke-width=".78637"/>
<path d="m90.15941,408.31736 555.33593-.19166" fill="none" stroke="#737373" stroke-width=".78602"/>
<path d="m91.6244,406.15161 552.39937-.19165" fill="none" stroke="#737373" stroke-width=".78612"/>
<path d="m93.49917,403.79421 548.4487-.19165" fill="none" stroke="#737373" stroke-width=".78573"/>
<path d="m123.55603,407.30155c-.68262,3.5669 8.55158,3.68142 12.19823,3.33166 39.03132.20671 98.24016-.79318 133.9776-.40129 3.94866-.72577 6.02731-1.79621 6.41067-3.66241 .0901-1.36028-2.47273-3.65826-5.34331-3.25342-46.17949.28931-90.27949.60148-133.37594.62496-4.51877.30822-13.32698-.14114-13.86726,3.3605z" fill="#4d4d4d" stroke="#000" stroke-width=".39748"/>
<path d="m140.15013,408.46868c18.28733.18607 45.45062-.64098 61.6696-.71903 3.23463,1.14895 7.65024-2.64026 1.6119-2.724-33.47914.26306-57.72269.21964-60.34103.74243-2.98993.0514-4.7369,1.83132-2.94047,2.7006z" fill="#808080" stroke="#000" stroke-width=".00385"/>
<path d="m563.33783,404.59189c-5.30938,1.2936-3.74789,4.02489-.0292,5.11549 10.3427.38685 21.03659.84919 27.99353.55193 5.24092-2.09532 2.36489-5.22089-2.12725-5.6907-7.50565-.004-17.62889.26185-25.83686.0233z" fill="#483737" stroke="#000" stroke-width=".3929"/>
<path d="m584.72874,405.76402c-1.87962,1.29488-.49811,2.31674.98311,2.94449 2.58936.22268 3.39581.37874 5.13749.20764 2.52273-.87591 2.57305-1.92603-.2024-2.74673-3.42447-.20492-3.14539-1.02027-5.9182-.4054z" fill="#1a1a1a" stroke="#000" stroke-width=".14915"/>
<path d="m586.63709,402.69901c-1.08193,1.21302-1.41873,3.77417-.66097,4.79683 2.10755.36275 2.86754.38349 4.28525.10475 1.06801-1.96479.37274-4.3166-.54266-4.75715-.59828-1.05362-2.13655-1.35712-3.08162-.14443z" fill="#d40000" stroke="#000" stroke-width=".17175"/>
<path d="m563.22489,407.90795c4.77528.13521 9.62663.0423 13.86102.0857 2.11319.79352 4.08029-2.06452.81032-1.94693-14.2112.41441-13.55539-1.04119-15.00482.49601 1.01421,1.20608.0814,1.33108.33348,1.36527z" fill="#b3b3b3" stroke="#000" stroke-width=".3929"/>
<path d="m119.75204,454.76105c-9.99111.51956-24.50824.0117-30.90909-.29035 .25181-2.63614 3.4254-7.04178 4.69868-8.00544 9.03174.48564 19.71353-.15714 29.03128.0195 .94167,2.26806-1.82701,6.67588-2.82087,8.27627z" fill="#483737" stroke="#000" stroke-width=".3929"/>
<path d="m149.93124,454.64118c-5.98287.50525-12.04764.0113-15.8806-.28235 .15079-2.56349 2.45765-7.1187 3.22012-8.0558 5.40837.47225 9.8268-.15281 15.40644.0189 .5639,2.20556-2.15082,6.76289-2.74596,8.31917z" fill="#483737" stroke="#000" stroke-width=".3929"/>
<path d="m179.92715,454.64118c-5.98286.50525-12.3186.0113-16.15156-.28235 .15079-2.56349 2.45764-6.57677 3.22011-8.19128 3.716-.21893 11.27516.25024 15.27097.0189 .56389,2.20556-1.74437,6.89837-2.33952,8.45465z" fill="#483737" stroke="#000" stroke-width=".3929"/>
<path d="m209.11016,454.64118c-5.98286.50525-12.04764.0113-15.8806-.28235 .15079-2.56349 2.18668-6.57677 2.94915-8.19128 3.71601-.21893 11.97968-.0208 14.75614.0189 .56388,2.20556-1.22954,6.89837-1.82469,8.45465z" fill="#483737" stroke="#000" stroke-width=".3929"/>
<path d="m240.5422,454.5057c-5.98287.50525-12.96892.0113-16.80188-.28235 .15079-2.56349.61507-6.84774 1.37754-8.46225 3.716-.21894 13.68675-.0208 16.46321.0189 .56389,2.20557-.44373,7.16935-1.03887,8.72563z" fill="#483737" stroke="#000" stroke-width=".3929"/>
<path d="m271.45939,454.83867c-5.98287.50524-14.29665.0113-18.12962-.28235 .1508-2.5635 1.40088-6.84774 2.16335-8.46226 3.716-.21893 12.90096-.0208 15.67742.0189 .56389,2.20557.88399,7.16934.28885,8.72563z" fill="#483737" stroke="#000" stroke-width=".3929"/>
<path d="m302.10562,454.43222c-5.98287.50524-14.29665.0113-18.12961-.28236 .15078-2.56349 1.26538-6.87483 2.02786-8.48935 3.716-.21893 13.03644-.0207 15.81289.0189 .5639,2.20557.884,7.19644.28886,8.75273z" fill="#483737" stroke="#000" stroke-width=".3929"/>
<path d="m331.96605,454.43222c-5.98287.50524-14.29666.0113-18.12962-.28236 .15079-2.56349.72346-6.87483 1.48594-8.48935 3.716-.21893 12.79256-.0207 15.56902.0189 .5639,2.20557 1.6698,7.19644 1.07466,8.75273z" fill="#483737" stroke="#000" stroke-width=".3929"/>
<path d="m362.99163,454.35874c-5.98287.50525-13.89021.0113-17.72317-.28236 .15079-2.56349-.98362-6.87483-.22115-8.48935 3.716-.21893 13.68675-.0208 16.46322.0189 .56388,2.20556 2.07624,7.19644 1.4811,8.75272z" fill="#483737" stroke="#000" stroke-width=".3929"/>
<path d="m393.25852,454.35874c-5.98287.50525-13.75473.0113-17.58769-.28236-.25566-2.29252-1.11912-6.87483-.35664-8.48935 3.71599-.21893 13.03644-.0208 15.8129.0189 .56389,2.20556 2.72657,7.19644 2.13143,8.75272z" fill="#483737" stroke="#000" stroke-width=".3929"/>
<path d="m424.58216,454.35874c-5.98285.50525-14.67601.14684-18.50897-.14687-.25566-2.29253-1.90491-7.01032-1.14244-8.62484 3.716-.21893 13.82222-.0208 16.59869.0189 .97036,2.20556 2.83498,7.19644 3.05272,8.75272z" fill="#483737" stroke="#000" stroke-width=".3929"/>
<path d="m453.65679,454.49422c-5.98286.50525-14.67601.14684-18.50898-.14687-.25566-2.29252-1.76943-7.01032-1.00693-8.62484 3.71598-.21892 14.22869-.0208 17.00512.0189 .97035,2.20556 2.29305,7.19644 2.51079,8.75272z" fill="#483737" stroke="#000" stroke-width=".3929"/>
<path d="m483.92367,454.49422c-5.98289.50525-14.676.14684-18.50898-.14687-.66212-2.15704-2.31136-7.01032-1.54889-8.62484 3.716-.21892 14.22869-.0208 17.00516.0189 .97034,2.20556 2.83497,7.19644 3.05271,8.75272z" fill="#483737" stroke="#000" stroke-width=".3929"/>
<path d="m514.16346,454.49422c-5.9829.50525-12.5896.14684-16.42253-.14687-.66212-2.15704-3.61202-7.01032-2.84955-8.62484 3.716-.21892 12.4132-.0208 15.18968.0189 .97034,2.20556 3.86465,7.19644 4.0824,8.75272z" fill="#483737" stroke="#000" stroke-width=".3929"/>
<path d="m557.11149,454.5406c-5.98286.50526-27.00493.14685-30.83786-.14686-1.33957-1.75059-4.12684-7.01032-3.36438-8.62484 3.71602-.21893 27.34345-.0207 30.11992.0189 1.37675,1.52815 3.86458,7.19644 4.08232,8.75272z" fill="#483737" stroke="#000" stroke-width=".3929"/>
<path d="m111.59893,437.48905c-5.74138.50525-11.56137.0113-15.23962-.28236 .1447-2.56348 2.35844-7.1187 3.09014-8.05579 5.19008.47225 9.43017-.15282 14.78462.019 .54113,2.20556-2.06401,6.7629-2.63514,8.31917z" fill="#483737" stroke="#000" stroke-width=".3929"/>
<path d="m140.94453,437.0826c-5.74139.50524-11.56137.0113-15.23963-.28235 .14471-2.5635 2.08748-7.11871 2.81918-8.0558 5.19008.47225 9.15921-.15281 14.51365.0189 .54113,2.20557-1.52207,6.76289-2.0932,8.31918z" fill="#483737" stroke="#000" stroke-width=".3929"/>
<path d="m169.77529,437.0826c-5.74139.50524-12.37427.0113-16.05253-.28235 .14471-2.5635 2.08749-7.38967 2.81918-8.32677 5.19009.47226 9.9721-.1528 15.32655.0189 .54113,2.20558-1.52208,7.03386-2.0932,8.59015z" fill="#483737" stroke="#000" stroke-width=".3929"/>
<path d="m199.87958,437.0826c-5.74138.50524-13.02459.0113-16.70284-.28235 .14471-2.5635 2.08749-7.9316 2.81918-8.8687 5.19009.47226 9.9721-.15281 15.32655.0189 .54113,2.20557-.87176,7.57579-1.44289,9.13208z" fill="#483737" stroke="#000" stroke-width=".3929"/>
<path d="m228.95421,437.0826c-5.74138.50524-13.02458.0113-16.70284-.28235 .1447-2.5635 1.30168-8.20257 2.03338-9.13967 5.19008.47226 9.9721-.1528 15.32654.0189 .54113,2.20557-.0859,7.84675-.65708,9.40304z" fill="#483737" stroke="#000" stroke-width=".3929"/>
<path d="m258.43529,437.0826c-5.74139.50524-13.16008.0113-16.83832-.28235 .1447-2.5635 1.43717-7.79612 2.16886-8.73322 5.19009.47225 9.83661-.15282 15.19107.0189 .54112,2.20556.0495,7.4403-.52161,8.99659z" fill="#483737" stroke="#000" stroke-width=".3929"/>
<path d="m287.91637,436.81164c-5.74139.50524-14.08135.28231-17.75961-.0114 .1447-2.56348 1.43716-7.79611 2.16886-8.73321 5.19009.47226 9.83662-.15281 15.19106.019 .54114,2.20556.97081,7.16933.39969,8.72562z" fill="#483737" stroke="#000" stroke-width=".3929"/>
<path d="m316.991,436.81164c-5.74139.50524-14.08135.28231-17.75961-.0114 .1447-2.56348 1.43717-7.79611 2.16886-8.73321 5.19009.47226 9.83662-.15281 15.19107.019 .54112,2.20556.97081,7.16933.39968,8.72562z" fill="#483737" stroke="#000" stroke-width=".3929"/>
<path d="m346.85143,437.1446c-5.74139.50525-14.08136.28232-17.75961-.0114 .1447-2.5635.75974-8.44644 1.49144-9.38354 5.19009.47225 9.83662-.15281 15.19107.0189 .54113,2.20557 1.64822,7.81965 1.0771,9.37594z" fill="#483737" stroke="#000" stroke-width=".3929"/>
<path d="m376.0837,436.81164c-5.74138.50524-13.72416.28231-17.40242-.0114 .14471-2.56348.21782-8.44643.94952-9.38352 5.19009.47224 10.02136-.15282 15.37582.0189 .54112,2.20557 1.64821,7.81966 1.07708,9.37595z" fill="#483737" stroke="#000" stroke-width=".3929"/>
<path d="m405.51552,436.96273c-5.74139.50525-13.81039.28232-17.48864-.0114 .1447-2.5635-.18863-8.44645.54306-9.38355 5.19009.47225 9.9721-.15281 15.32654.0189 .54114,2.20557 2.19016,7.81967 1.61904,9.37594z" fill="#483737" stroke="#000" stroke-width=".3929"/>
<path d="m435.24046,436.76525c-5.74138.50525-13.81038.28232-17.48864-.0114 .14471-2.56349-.3241-8.31096.4076-9.24806 4.37719.2013 10.10756-.1528 15.462.0189 .54115,2.20557 2.19015,7.68418 1.61904,9.24046z" fill="#483737" stroke="#000" stroke-width=".3929"/>
<path d="m464.31508,436.76525c-5.74138.50525-13.81037.28232-17.48863-.0114 .14471-2.56349-.86603-8.31095-.13437-9.24805 4.37723.20129 10.64953.11815 16.00397.28994 .54115,2.20557 2.32566,7.41321 1.75454,8.96949z" fill="#483737" stroke="#000" stroke-width=".3929"/>
<path d="m493.52522,437.2337c-5.74142.23428-12.21169.28232-15.88995-.0114 .1447-2.5635-1.81442-8.31095-1.08276-9.24805 4.37722.20128 9.99924.11815 15.35368.28994 .54111,2.20556 2.32563,7.54869 1.7545,9.10498z" fill="#483737" stroke="#000" stroke-width=".3929"/>
<path d="m523.74283,436.90074c-5.74141.23427-13.26847.28232-16.94673-.0114-.12624-2.69897-2.03613-8.17547-1.30443-9.11257 4.37718.20128 9.99919.11815 15.35364.28995 .54114,2.20555 3.60412,7.4132 3.033,8.96949z" fill="#483737" stroke="#000" stroke-width=".3929"/>
<path d="m550.88868,436.90074c-5.74141.23427-13.26849.28232-16.94674-.0114-.12624-2.69897-2.39331-8.17547-1.66162-9.11257 4.37723.20128 9.99919.11815 15.35368.28995 .5411,2.20555 3.9613,7.4132 3.39017,8.96949z" fill="#483737" stroke="#000" stroke-width=".3929"/>
<path d="m208.24946,404.62269h40.71878" fill="none" stroke="#d95050" stroke-width=".3929"/>
<path d="m207.46366,405.40849h40.71877" fill="none" stroke="#dc9552" stroke-width=".3929"/>
<path d="m207.10649,406.30434h40.71876" fill="none" stroke="#ccc551" stroke-width=".3929"/>
<path d="m206.7493,407.2002h40.71876" fill="none" stroke="#47bd17" stroke-width=".3929"/>
<path d="m205.53488,408.09605h40.71876" fill="none" stroke="#495ec7" stroke-width=".3929"/>
<path d="m204.99911,409.1705h40.71876" fill="none" stroke="#6b0583" stroke-width=".3929"/>
<path d="m257.40453,406.11662c.95586-.16546 1.92832-.0187 2.88989-.10013 .33906-.58643-.22897-1.3455-.86144-1.35666-2.31749.26845-5.21264-.68938-7.24899.25408-.70352.33238-1.78047,2.06922-1.0381,2.72145 .51592.20033 1.08364.40937 1.61608.54613 1.82278-.23887 3.77864.0133 5.30738.0304 .57838-.10749 1.17406-.19519 1.71635-.42812 .43026-.24752.48864-.96231-.0335-1.1398-1.49549-.56814-3.20302-.46452-4.65537-.44364-.36553-.12832-.81619.23536-1.12472-.0733-.22026-.48882.54122-.5119.85075-.42482 .81367.0996 1.63483-.0174 2.45164.0189 .71872.002 1.43101.10824 2.13532.23771 .37218.0316.74741-.004 1.11297-.0761" fill="#e6e6e6" stroke="#000" stroke-width=".19645"/>
<path d="m261.33553,405.44317c-.36591.26997-.67183,1.16228-.46409,1.61753 2.27565.0524 4.94479.0216 6.21355-.002 .34806.17377.20954.86569.70479,1.07252s1.62426-.0714 1.70097-.2788c.0392-.45823.40208-.60952.80105-.63221 .35334-.17324.29893-.6973.20435-1.01645-.0607-.35997-.73051-.005-.67377-.37709 .19518-.40903.007-1.20736-.40041-1.15504-.92558.10007-1.84144.048-2.69312-.12085-1.64238.25791-3.62076.75196-5.39332.89205z" fill="#e6e6e6" stroke="#000" stroke-width=".19645"/>
<path d="m135.00844,405.86394c-1.3134-.30385-3.3625-.20671-4.48071-.0928-2.26687.50001-3.08435,1.33185-2.17079,2.72504 1.5385.46305 3.21925.21461 4.54018.28608 .31811-.009.73709-.66571.76563-1.01781-1.25103-.17417-3.32983.20903-2.88478-.54845 .95025-.88429 2.41346-.59188 3.37015-.56227 .64244-.37982.62472-.52407.86032-.7898z" fill="#e6e6e6" stroke="#000" stroke-width=".00196"/>
<path d="m134.61231,406.58181 3.12431.12415-1.46905.4966-1.92127-.0281z" fill="#e6e6e6" stroke="#000" stroke-width=".00196"/>
<path d="m134.30641,407.49666-.71641.5025 2.97797.0281-.34029-.50842z" fill="#e6e6e6" stroke="#000" stroke-width=".00196"/>
</svg>
